<svg xmlns="http://www.w3.org/2000/svg" viewBox="0 0 64 64" role="img" aria-label="Nexora Technologies">
  <defs>
    <linearGradient id="nx" x1="6" y1="60" x2="58" y2="6" gradientUnits="userSpaceOnUse">
      <stop offset="0" stop-color="#a855f7"/>
      <stop offset=".48" stop-color="#2f7dff"/>
      <stop offset="1" stop-color="#22d3ee"/>
    </linearGradient>
  </defs>

  <!-- circuit traces, echoing the mark on the business card -->
  <g stroke="#22d3ee" stroke-width="1.3" fill="none" opacity=".75" stroke-linecap="round">
    <path d="M46 5h8"/>
    <path d="M10 59H4"/>
  </g>
  <circle cx="56.6" cy="5" r="2.1" fill="#22d3ee"/>
  <circle cx="2.4" cy="59" r="2.1" fill="#a855f7"/>

  <!-- the N: chamfered top-left and bottom-right, two via holes punched through -->
  <path fill="url(#nx)" fill-rule="evenodd" d="
    M9 55 V15 L15 9 H20 L44 38 V9 H55 V49 L49 55 H44 L20 26 V55 Z
    M49.6 13.4 a2.9 2.9 0 1 0 .01 5.8 2.9 2.9 0 0 0-.01-5.8 Z
    M14.4 44.8 a2.9 2.9 0 1 0 .01 5.8 2.9 2.9 0 0 0-.01-5.8 Z
  "/>
</svg>
